<?xml version="1.0" encoding="utf-8"?>
<!-- Generator: Adobe Illustrator 22.0.1, SVG Export Plug-In . SVG Version: 6.00 Build 0)  -->
<svg version="1.1" id="Layer_2_1_" xmlns="http://www.w3.org/2000/svg" xmlns:xlink="http://www.w3.org/1999/xlink" x="0px" y="0px"
	 viewBox="0 0 169.8 52.6" style="enable-background:new 0 0 169.8 52.6;" xml:space="preserve">
<style type="text/css">
	.st0{fill:#00C853;}
	.st1{fill:#FFFDFD;}
	.st2{fill:#FFFFFF;}
</style>
<title>kwsim-logo-v2</title>
<path class="st0" d="M11.4,22.7H8.2c0.2,1.2,0.4,2.4,0.4,3.6v12.9H0.3V1.8h8.2v10.6c0,1.5-0.1,3-0.4,4.4h3.2l9.5-15h8.9l-9.6,14.9
	c-0.7,1.2-1.6,2.2-2.7,3v0.2c1.3,0.9,2.3,2,3.1,3.3l9.8,16h-9.2L11.4,22.7z"/>
<path class="st0" d="M78.9,1.8l-5.9,35c-0.1,0.7-0.5,1.2-1,1.7c-0.6,0.4-1.2,0.6-1.9,0.6h-7.9c-0.7,0-1.4-0.2-2-0.7
	c-0.5-0.4-0.9-1-1-1.7l-4.1-24.4c-0.3-1.6-0.5-3.2-0.7-4.7h-1c0,0.1-0.1,0.8-0.3,2s-0.3,2.1-0.4,2.8l-4,24.3c-0.1,0.7-0.5,1.3-1,1.7
	c-0.6,0.4-1.3,0.7-2,0.7h-7.9c-0.7,0-1.4-0.2-1.9-0.6c-0.5-0.4-0.9-1-1.1-1.7l-5.8-35h8.4l3.6,25.9c0.2,1.6,0.4,3.4,0.5,5.4h1.1
	c0.1-1,0.4-2.8,0.8-5.4l4-23.4c0.1-0.7,0.5-1.4,1-1.8c0.6-0.5,1.3-0.7,2-0.7h7.1c0.7,0,1.4,0.2,1.9,0.7c0.5,0.5,0.9,1.1,0.9,1.8
	l4,23.4c0.4,2.7,0.7,4.4,0.8,5.3h1.1c0.1-2,0.3-3.8,0.5-5.3l3.7-26L78.9,1.8z"/>
<path class="st1" d="M94.9,25l-7.5-2.7c-2.4-0.7-4.5-2.2-6-4.1c-1.3-2-1.9-4.4-1.8-6.8c0-4.1,1-6.9,3-8.3c2-1.4,5.5-2.1,10.6-2.1
	c4.1-0.1,8.3,0.4,12.3,1.5L105,8.2C101.8,8,97.9,8,93.3,8c-1.5-0.1-2.9,0.1-4.3,0.6c-0.7,0.4-1.1,1.3-1.1,2.8
	c-0.1,1,0.2,1.9,0.8,2.7c0.9,0.7,2,1.3,3.1,1.6l7.1,2.4c2.4,0.7,4.6,2.1,6.1,4.1c1.3,2,1.9,4.4,1.8,6.8c0,4.2-1,7-3,8.5
	c-2,1.5-5.6,2.2-10.8,2.3c-4.3,0-8.6-0.5-12.8-1.4l0.5-6c7.7,0.2,11.8,0.3,12.3,0.3c2.2,0,3.7-0.2,4.4-0.7s1.1-1.4,1.1-2.9
	c0.1-1-0.2-1.9-0.8-2.7C96.9,25.7,95.9,25.2,94.9,25z"/>
<path class="st2" d="M157.1,1.8h7.9c2,0,3,1,3.1,3.1l1.5,34.3h-7.8l-1.2-30.9h-1L154,31.3c-0.2,1.6-1.7,2.8-3.4,2.7h-5.4
	c-1.7,0.2-3.1-1-3.4-2.7l-5.7-23.1h-0.9l-1.1,30.9h-7.8l1.4-34.3c0.1-2.1,1.1-3.1,3.1-3.1h8c1.6-0.1,3.1,1,3.3,2.7l4.5,18.6
	c0.3,1.2,0.6,2.9,1,5.3h0.7c0-0.2,0.2-0.9,0.4-2.2s0.4-2.3,0.6-3l4.5-18.6C154.1,2.8,155.5,1.7,157.1,1.8z"/>
<path class="st2" d="M0,43.1h1.4v9.5H0V43.1z"/>
<path class="st2" d="M12.3,43.1v9.5h-1.1l-5.7-7.1v7.1H4.2v-9.5h1.1l5.7,7.1v-7.1H12.3z"/>
<path class="st2" d="M23.3,43.1v9.5h-1.1l-5.7-7.1v7.1h-1.4v-9.5h1.1l5.7,7.1v-7.1H23.3z"/>
<path class="st2" d="M25.3,47.8c0-2.7,2.1-4.8,4.8-4.8c0.1,0,0.1,0,0.2,0c2.7-0.1,4.9,1.9,5.1,4.6c0.1,2.7-1.9,4.9-4.6,5.1
	c-0.1,0-0.3,0-0.4,0c-2.6,0.1-4.9-1.9-5-4.6C25.3,48,25.3,47.9,25.3,47.8z M34,47.8c0-2-1.6-3.7-3.6-3.7s-3.7,1.6-3.7,3.6
	c0,2,1.6,3.7,3.6,3.7c0,0,0,0,0.1,0c2,0.1,3.6-1.5,3.7-3.4C34,47.9,34,47.9,34,47.8z"/>
<path class="st2" d="M45.3,43.1l-4.2,9.5h-1.3l-4.2-9.5h1.5l3.4,7.8l3.4-7.8H45.3z"/>
<path class="st2" d="M52.2,50.2h-5l-1,2.4h-1.5l4.3-9.5h1.3l4.3,9.5h-1.4L52.2,50.2z M51.8,49.1l-2-4.6l-2,4.6H51.8z"/>
<path class="st2" d="M57.5,44.3h-3.3v-1.2h7.8v1.2h-3.2v8.3h-1.3V44.3z"/>
<path class="st2" d="M63.5,43.1h1.3v9.5h-1.3V43.1z"/>
<path class="st2" d="M66.9,47.8c-0.1-2.8,2.1-5.1,4.8-5.2c2.8-0.1,5.1,2.1,5.2,4.8c0.1,2.8-2.1,5.1-4.8,5.2c-0.1,0-0.1,0-0.2,0
	c-2.6,0.1-4.9-1.9-5-4.6C66.9,48,66.9,47.9,66.9,47.8z M75.6,47.8c0-2-1.6-3.7-3.6-3.7c-2,0-3.7,1.6-3.7,3.6s1.6,3.7,3.6,3.7
	c0,0,0,0,0.1,0c2,0.1,3.6-1.4,3.7-3.4C75.7,48,75.7,47.9,75.6,47.8L75.6,47.8z"/>
<path class="st2" d="M87.2,43.1v9.5h-1.1l-5.7-7.1v7.1H79v-9.5h1.1l5.7,7.1v-7.1H87.2z"/>
<path class="st2" d="M109.6,52.5v-6.9l-3.4,5.8h-0.6l-3.4-5.7v6.9h-1.3v-9.5h1.1l3.9,6.7l3.9-6.7h1.1v9.5H109.6z"/>
<path class="st2" d="M120.6,51.4v1.2h-6.9v-9.5h6.7v1.2H115v2.9h4.7v1.2H115v3.1L120.6,51.4z"/>
<path class="st2" d="M122.7,43.1h4c3,0,5.1,1.9,5.1,4.7s-2.1,4.7-5.1,4.7h-4V43.1z M126.6,51.4c2.3,0,3.8-1.4,3.8-3.6
	s-1.5-3.6-3.8-3.6h-2.6v7.1H126.6z"/>
<path class="st2" d="M133.9,43.1h1.4v9.5h-1.4V43.1z"/>
<path class="st2" d="M137.3,47.8c0-2.6,2.1-4.8,4.7-4.8c0.1,0,0.2,0,0.3,0c1.4-0.1,2.7,0.5,3.6,1.5l-0.9,0.8
	c-0.7-0.7-1.7-1.1-2.7-1.1c-2-0.1-3.7,1.4-3.8,3.4c-0.1,2,1.4,3.7,3.4,3.8c0.1,0,0.3,0,0.4,0c1,0,2-0.4,2.7-1.1l0.9,0.8
	c-0.9,1-2.2,1.5-3.6,1.5c-2.6,0.1-4.9-1.9-5-4.6C137.3,48,137.3,47.9,137.3,47.8z"/>
<path class="st2" d="M147.8,43.1h1.4v9.5h-1.4V43.1z"/>
<path class="st2" d="M160.1,43.1v9.5H159l-5.7-7.1v7.1H152v-9.5h1.1l5.7,7.1v-7.1H160.1z"/>
<path class="st2" d="M169.8,51.4v1.2h-6.9v-9.5h6.7v1.2h-5.3v2.9h4.7v1.2h-4.7v3.1L169.8,51.4z"/>
<circle class="st2" cx="93.9" cy="48" r="2.3"/>
<path class="st0" d="M122.7,4.5c-0.1,0.2-1.1,0-1.1,0s-1.2-1-1.1-1.1S122.8,4.3,122.7,4.5z"/>
<polygon class="st2" points="113.7,0 114.3,10.6 115.9,39.5 117.1,39.5 117.1,2.3 115.9,2.3 "/>
<path class="st0" d="M121.6,3.4c0-0.7-1-1.1-1.1-1.1c-0.7-0.2-1.5-0.2-2.3,0c-3.7,1-4.5,0.1-5.6,1.1c-0.9,0.9-1.4,2.1-1.1,3.4
	c0.8,2.5,5.7,1.7,6.8,4.5c0.2,0.7,0.2,1.5,0,2.3c-0.1,0.4-0.5,1-2.3,2.3c-2.3,1.6-3.1,1.4-3.4,2.3c-0.4,1.1,0.4,2.3,1.1,3.4
	c0.9,1.3,2.1,2.5,3.4,3.4c0.5,0.3,0.9,0.7,1.1,1.1c0.3,0.7,0.3,1.5,0,2.3c-0.6,1.2-2,0.8-3.4,2.3c-0.4,0.4-1.3,1.3-1.1,2.3
	c0.1,0.5,0.8,1.1,2.3,2.3c0.9,0.7,1.1,0.8,1.1,1.1c0.1,1.1-2.4,2-2.3,2.3s1.8-0.2,3.4-1.1c0.7-0.4,1.1-0.7,1.1-1.1
	c0-0.7-1.1-1.4-2.3-2.3c-0.5-0.3-0.9-0.6-1.1-1.1c-0.1-0.4-0.1-0.8,0-1.1c0.4-1.2,2-0.9,3.4-2.3c0.7-0.6,1.1-1.4,1.1-2.3
	c-0.1-0.9-0.5-1.7-1.1-2.3c-0.7-0.8-1.5-1.6-2.3-2.3c-0.4-0.3-0.8-0.7-1.1-1.1c-0.6-0.6-1-1.4-1.1-2.3c0-1.6,2.2-2.9,3.4-3.4
	s1.8-0.4,2.3-1.1c0.3-0.7,0.3-1.5,0-2.3c-0.6-1.8-2.3-2.7-3.4-3.4c-1.8-1-3-1.1-3.4-2.3c-0.1-0.4-0.1-0.8,0-1.1
	c0.3-0.6,1-0.5,2.3-1.1s1.7-1.3,2.3-1.1s0.4,0.8,1.1,1.1c0.4,0.1,0.8,0.1,1.1,0C120.9,4.4,121.6,3.9,121.6,3.4z"/>
</svg>
