<svg id="Layer_2" data-name="Layer 2" xmlns="http://www.w3.org/2000/svg" viewBox="0 0 169.78 52.645"><title>kwsim-logo-v2-navbar</title><path d="M11.35,22.66H8.16a21.724,21.724,0,0,1,.38,3.57V39.11H.32V1.78H8.54V12.33a24.64,24.64,0,0,1-.38,4.43h3.19l9.47-15h8.93l-9.63,14.9a10.007,10.007,0,0,1-2.71,3v.22a10.831,10.831,0,0,1,3.14,3.3l9.85,16H21.2Z" style="fill:#00c853"/><path d="M78.92,1.78l-5.9,35.05a2.658,2.658,0,0,1-1,1.65,3.081,3.081,0,0,1-1.95.63H62.15a3,3,0,0,1-2-.65,2.618,2.618,0,0,1-1-1.68l-4.06-24.4c-.29-1.59-.5-3.15-.65-4.71h-1c0,.11-.09.78-.25,2s-.3,2.14-.4,2.76l-4,24.34a2.567,2.567,0,0,1-1,1.68,3.153,3.153,0,0,1-2,.65h-7.9a3.119,3.119,0,0,1-1.92-.63,2.679,2.679,0,0,1-1.06-1.65L29.1,1.78h8.44l3.62,25.91c.22,1.62.38,3.43.49,5.41h1.08q.161-1.519.81-5.41l4-23.37a2.993,2.993,0,0,1,1-1.84,2.84,2.84,0,0,1,2-.7h7.11a2.789,2.789,0,0,1,1.92.7,2.911,2.911,0,0,1,.94,1.84l4,23.43c.43,2.66.68,4.45.75,5.35H66.4c.14-2,.31-3.82.49-5.3l3.68-26Z" style="fill:#00c853"/><path d="M94.93,24.99l-7.52-2.65a11.888,11.888,0,0,1-6-4.12,11.789,11.789,0,0,1-1.76-6.81q0-6.17,3-8.25T93.23,1.07a45.448,45.448,0,0,1,12.28,1.46l-.54,5.63Q100.26,7.991,93.28,8a10.76,10.76,0,0,0-4.33.57c-.72.38-1.08,1.32-1.08,2.84a3.65,3.65,0,0,0,.81,2.65,8.3,8.3,0,0,0,3.09,1.57l7.08,2.43a11.813,11.813,0,0,1,6.12,4.14,11.937,11.937,0,0,1,1.78,6.84q0,6.28-3,8.52T92.93,39.81A60.282,60.282,0,0,1,80.11,38.4l.49-6q11.52.27,12.33.27c2.2,0,3.67-.23,4.41-.7s1.11-1.44,1.11-2.92a3.781,3.781,0,0,0-.76-2.68A6.8,6.8,0,0,0,94.93,24.99Z" style="fill:#fffdfd"/><path d="M157.15,1.78h7.95q3,0,3.08,3.08l1.47,34.25h-7.8l-1.2-30.89h-1l-5.63,23.1a3.06,3.06,0,0,1-3.35,2.65h-5.41a3.06,3.06,0,0,1-3.36-2.65l-5.68-23.1h-.92l-1.08,30.89h-7.79l1.35-34.25q.169-3.08,3.09-3.08h8a3,3,0,0,1,3.25,2.65l4.53,18.61q.44,1.781,1,5.25h.71c0-.18.17-.92.4-2.22s.43-2.31.57-3l4.49-18.61A3.139,3.139,0,0,1,157.15,1.78Z" style="fill:#fff"/><path d="M0,43.07H1.35v9.47H0Z" style="fill:#fff"/><path d="M12.3,43.07v9.47H11.19L5.51,45.48v7.06H4.16V43.07H5.27l5.68,7.06V43.07Z" style="fill:#fff"/><path d="M23.26,43.07v9.47H22.15l-5.68-7.06v7.06H15.12V43.07h1.11l5.67,7.06V43.07Z" style="fill:#fff"/><path d="M25.3,47.81a4.811,4.811,0,0,1,4.776-4.844c.075,0,.149,0,.224,0a4.84,4.84,0,0,1,.44,9.67c-.147.007-.293.007-.44,0a4.8,4.8,0,0,1-5-4.6C25.3,47.966,25.3,47.888,25.3,47.81Zm8.71,0a3.68,3.68,0,1,0-3.73,3.63h.06a3.56,3.56,0,0,0,3.669-3.448C34.011,47.932,34.011,47.871,34.01,47.81Z" style="fill:#fff"/><path d="M45.33,43.07l-4.15,9.47H39.84l-4.19-9.47h1.46l3.41,7.78,3.44-7.78Z" style="fill:#fff"/><path d="M52.24,50.17h-5l-1,2.37H44.78l4.28-9.47H50.4l4.3,9.47H53.28Zm-.47-1.08-2-4.64-2,4.64Z" style="fill:#fff"/><path d="M57.49,44.25H54.24V43.07h7.83v1.18H58.83v8.29H57.49Z" style="fill:#fff"/><path d="M63.52,43.07h1.35v9.47H63.52Z" style="fill:#fff"/><path d="M66.92,47.81a5,5,0,1,1,5.167,4.827c-.056,0-.111,0-.167,0a4.8,4.8,0,0,1-5-4.6C66.921,47.966,66.919,47.888,66.92,47.81Zm8.7,0a3.68,3.68,0,1,0-3.73,3.63h.07a3.55,3.55,0,0,0,3.688-3.406c0-.075,0-.149,0-.224Z" style="fill:#fff"/><path d="M87.16,43.07v9.47H86.05l-5.68-7.06v7.06H79.02V43.07h1.11l5.68,7.06V43.07Z" style="fill:#fff"/><path d="M109.58,52.54v-6.9l-3.42,5.75h-.62l-3.42-5.71v6.86h-1.3V43.07h1.11l3.94,6.65,3.9-6.65h1.11v9.47Z" style="fill:#fff"/><path d="M120.57,51.36v1.18H113.7V43.07h6.68v1.18h-5.33v2.91h4.74v1.15h-4.74v3.05Z" style="fill:#fff"/><path d="M122.73,43.07h4c3,0,5.11,1.92,5.11,4.74s-2.07,4.73-5.11,4.73h-4Zm3.91,8.29c2.34,0,3.84-1.43,3.84-3.55s-1.5-3.56-3.84-3.56h-2.56v7.11Z" style="fill:#fff"/><path d="M133.88,43.07h1.35v9.47h-1.35Z" style="fill:#fff"/><path d="M137.27,47.81a4.79,4.79,0,0,1,4.735-4.844c.088,0,.177,0,.265,0a4.662,4.662,0,0,1,3.59,1.47l-.88.85a3.5,3.5,0,0,0-2.66-1.12,3.64,3.64,0,1,0-.382,7.27,4.15,4.15,0,0,0,3.042-1.13l.88.85a4.692,4.692,0,0,1-3.61,1.48,4.78,4.78,0,0,1-4.976-4.576C137.27,47.98,137.269,47.9,137.27,47.81Z" style="fill:#fff"/><path d="M147.79,43.07h1.35v9.47h-1.35Z" style="fill:#fff"/><path d="M160.1,43.07v9.47h-1.11l-5.68-7.06v7.06h-1.35V43.07h1.11l5.67,7.06V43.07Z" style="fill:#fff"/><path d="M169.78,51.36v1.18h-6.87V43.07h6.68v1.18h-5.32v2.91h4.74v1.15h-4.74v3.05Z" style="fill:#fff"/><circle cx="93.93" cy="48.03" r="2.28" style="fill:#fff"/><path d="M122.72,4.52c-.06.15-1.13,0-1.13,0s-1.22-1-1.13-1.13S122.8,4.28,122.72,4.52Z" style="fill:#00c853"/><polygon points="113.69 0 114.3 10.63 115.95 39.5 117.08 39.5 117.08 2.26 115.95 2.26 113.69 0" style="fill:#fff"/><path d="M121.59,3.39c0-.67-1-1.06-1.13-1.13a3.58,3.58,0,0,0-2.26,0c-3.73,1-4.52.07-5.64,1.13a3.61,3.61,0,0,0-1.13,3.39c.83,2.47,5.73,1.68,6.77,4.51a3.526,3.526,0,0,1,0,2.26c-.15.41-.48,1-2.25,2.25-2.27,1.55-3.06,1.42-3.39,2.26-.41,1.06.41,2.31,1.13,3.39a13.428,13.428,0,0,0,3.39,3.38,2.884,2.884,0,0,1,1.12,1.13,2.631,2.631,0,0,1,0,2.26c-.63,1.24-2,.8-3.38,2.25-.41.42-1.32,1.34-1.13,2.26.1.51.82,1.1,2.26,2.26.88.71,1.09.83,1.13,1.13.12,1.07-2.39,2-2.26,2.25s1.84-.15,3.38-1.13c.69-.43,1.11-.71,1.13-1.12,0-.7-1.06-1.44-2.25-2.26-.51-.34-.94-.59-1.13-1.13a1.776,1.776,0,0,1,0-1.13c.42-1.18,2-.86,3.38-2.25a3.319,3.319,0,0,0,1.13-2.26,3.811,3.811,0,0,0-1.13-2.26,25.8,25.8,0,0,0-2.25-2.26,9.64,9.64,0,0,1-1.13-1.12,3.936,3.936,0,0,1-1.13-2.26c0-1.55,2.2-2.87,3.38-3.39s1.84-.44,2.26-1.12a2.757,2.757,0,0,0,0-2.26c-.61-1.76-2.27-2.74-3.38-3.39-1.8-1-3-1.14-3.39-2.25a1.562,1.562,0,0,1,0-1.13c.3-.63,1-.52,2.26-1.13s1.71-1.33,2.25-1.13.44.84,1.13,1.13a1.662,1.662,0,0,0,1.13,0C120.89,4.38,121.59,3.93,121.59,3.39Z" style="fill:#00c853"/></svg>