<svg id="Layer_2" data-name="Layer 2" xmlns="http://www.w3.org/2000/svg" viewBox="0 0 91.725 28.448"><defs><style>.cls-1{fill:#00c853;}.cls-2{fill:#fff;}</style></defs><title>kwsim-logo-navbar2</title><path class="cls-1" d="M59.887,99.7H58.163a11.677,11.677,0,0,1,.205,1.929v6.956H53.925V88.418h4.443v5.7a13.275,13.275,0,0,1-.205,2.4h1.724L65,88.418h4.823l-5.2,8.038a5.38,5.38,0,0,1-1.461,1.607v.117a5.9,5.9,0,0,1,1.694,1.782l5.319,8.622H65.206Z" transform="translate(-53.755 -87.454)"/><path class="cls-1" d="M96.39,88.418,93.2,107.356a1.467,1.467,0,0,1-.555.892,1.678,1.678,0,0,1-1.052.336H87.33a1.631,1.631,0,0,1-1.052-.351,1.4,1.4,0,0,1-.526-.906L83.56,94.146q-.234-1.284-.351-2.542h-.555q0,.088-.132,1.082t-.219,1.49l-2.162,13.151a1.386,1.386,0,0,1-.541.906,1.694,1.694,0,0,1-1.067.351H74.266a1.694,1.694,0,0,1-1.037-.336,1.436,1.436,0,0,1-.57-.892L69.473,88.418h4.559l1.959,14q.174,1.315.262,2.923h.585q.087-.817.438-2.923l2.163-12.625a1.593,1.593,0,0,1,.512-.994,1.536,1.536,0,0,1,1.066-.38h3.858a1.5,1.5,0,0,1,1.038.38,1.592,1.592,0,0,1,.511.994l2.163,12.654q.349,2.165.409,2.894h.613q.117-1.667.264-2.864L91.86,88.418Z" transform="translate(-53.755 -87.454)"/><path class="cls-2" d="M105.04,100.956l-4.062-1.432a5.547,5.547,0,0,1-4.179-5.9q0-3.333,1.622-4.457t5.713-1.125a24.487,24.487,0,0,1,6.635.789l-.292,3.039q-2.544-.087-6.314-.088a5.824,5.824,0,0,0-2.338.307q-.584.307-.585,1.535a1.967,1.967,0,0,0,.44,1.432,4.45,4.45,0,0,0,1.665.847l3.829,1.315a6.39,6.39,0,0,1,3.3,2.236,6.457,6.457,0,0,1,.963,3.7q0,3.39-1.636,4.6t-5.845,1.213a32.613,32.613,0,0,1-6.926-.76l.262-3.215q6.225.147,6.664.147a4.99,4.99,0,0,0,2.382-.38,1.742,1.742,0,0,0,.6-1.578,2.053,2.053,0,0,0-.409-1.448A3.7,3.7,0,0,0,105.04,100.956Z" transform="translate(-53.755 -87.454)"/><path class="cls-2" d="M138.648,88.418h4.3a1.5,1.5,0,0,1,1.665,1.666l.789,18.5h-4.208L140.52,91.9h-.5l-3.039,12.48a1.651,1.651,0,0,1-1.812,1.432h-2.923a1.65,1.65,0,0,1-1.811-1.432L127.368,91.9h-.5l-.585,16.688h-4.208l.731-18.5a1.522,1.522,0,0,1,1.666-1.666h4.3a1.641,1.641,0,0,1,1.753,1.433L132.979,99.9q.234.965.526,2.835h.38c.019-.1.093-.5.219-1.2s.229-1.247.307-1.637l2.426-10.053A1.7,1.7,0,0,1,138.648,88.418Z" transform="translate(-53.755 -87.454)"/><path class="cls-2" d="M53.755,110.727h.731v5.116h-.731Z" transform="translate(-53.755 -87.454)"/><path class="cls-2" d="M60.406,110.727v5.116h-.6l-3.069-3.816v3.816h-.731v-5.116h.6l3.07,3.815v-3.815Z" transform="translate(-53.755 -87.454)"/><path class="cls-2" d="M66.324,110.727v5.116h-.6l-3.069-3.816v3.816h-.731v-5.116h.6l3.07,3.815v-3.815Z" transform="translate(-53.755 -87.454)"/><path class="cls-2" d="M67.425,113.284a2.721,2.721,0,1,1,2.726,2.617A2.6,2.6,0,0,1,67.425,113.284Zm4.707,0a1.988,1.988,0,1,0-1.981,1.967A1.921,1.921,0,0,0,72.132,113.284Z" transform="translate(-53.755 -87.454)"/><path class="cls-2" d="M78.248,110.727,76,115.843H75.28l-2.251-5.116h.79l1.842,4.2,1.856-4.2Z" transform="translate(-53.755 -87.454)"/><path class="cls-2" d="M81.981,114.563H79.262l-.563,1.28h-.753l2.317-5.116h.724l2.324,5.116h-.768Zm-.256-.584-1.1-2.507-1.1,2.507Z" transform="translate(-53.755 -87.454)"/><path class="cls-2" d="M84.815,111.362H83.061v-.635h4.232v.635H85.539v4.481h-.724Z" transform="translate(-53.755 -87.454)"/><path class="cls-2" d="M88.073,110.727H88.8v5.116h-.731Z" transform="translate(-53.755 -87.454)"/><path class="cls-2" d="M89.907,113.284a2.721,2.721,0,1,1,2.726,2.617A2.6,2.6,0,0,1,89.907,113.284Zm4.707,0a1.988,1.988,0,1,0-1.981,1.967A1.921,1.921,0,0,0,94.614,113.284Z" transform="translate(-53.755 -87.454)"/><path class="cls-2" d="M100.846,110.727v5.116h-.6l-3.07-3.816v3.816h-.731v-5.116h.6l3.07,3.815v-3.815Z" transform="translate(-53.755 -87.454)"/><path class="cls-2" d="M112.96,115.843l-.007-3.728-1.849,3.107h-.336l-1.85-3.085v3.706h-.7v-5.116h.6l2.134,3.595,2.106-3.595h.6l.008,5.116Z" transform="translate(-53.755 -87.454)"/><path class="cls-2" d="M118.893,115.207v.636H115.18v-5.116h3.61v.635h-2.88v1.572h2.566v.621H115.91v1.652Z" transform="translate(-53.755 -87.454)"/><path class="cls-2" d="M120.061,110.727h2.156a2.566,2.566,0,1,1,0,5.116h-2.156Zm2.112,4.48a1.928,1.928,0,1,0,0-3.845h-1.382v3.845Z" transform="translate(-53.755 -87.454)"/><path class="cls-2" d="M126.081,110.727h.731v5.116h-.731Z" transform="translate(-53.755 -87.454)"/><path class="cls-2" d="M127.914,113.284a2.588,2.588,0,0,1,2.712-2.616,2.525,2.525,0,0,1,1.944.8l-.475.46a1.9,1.9,0,0,0-1.44-.607,1.967,1.967,0,1,0,0,3.933,1.9,1.9,0,0,0,1.44-.614l.475.461a2.542,2.542,0,0,1-1.952.8A2.586,2.586,0,0,1,127.914,113.284Z" transform="translate(-53.755 -87.454)"/><path class="cls-2" d="M133.6,110.727h.73v5.116h-.73Z" transform="translate(-53.755 -87.454)"/><path class="cls-2" d="M140.249,110.727v5.116h-.6l-3.07-3.816v3.816h-.73v-5.116h.6l3.07,3.815v-3.815Z" transform="translate(-53.755 -87.454)"/><path class="cls-2" d="M145.48,115.207v.636h-3.712v-5.116h3.61v.635H142.5v1.572h2.565v.621H142.5v1.652Z" transform="translate(-53.755 -87.454)"/><circle class="cls-2" cx="50.742" cy="25.945" r="1.232"/><path class="cls-1" d="M120.05,89.892c-.03.084-.61,0-.61,0s-.658-.531-.61-.609C118.891,89.184,120.094,89.765,120.05,89.892Z" transform="translate(-53.755 -87.454)"/><polygon class="cls-2" points="61.417 0 61.745 5.745 62.636 21.337 63.246 21.337 63.246 1.219 62.636 1.219 61.417 0"/><path class="cls-1" d="M119.44,89.283c0-.362-.525-.575-.61-.61a1.881,1.881,0,0,0-1.219,0c-2.016.513-2.446.038-3.048.61a1.943,1.943,0,0,0-.61,1.829c.447,1.335,3.094.91,3.658,2.438a1.928,1.928,0,0,1,0,1.219c-.082.226-.264.569-1.219,1.22-1.227.835-1.651.763-1.829,1.219-.223.571.223,1.245.61,1.829A7.159,7.159,0,0,0,117,100.866a1.559,1.559,0,0,1,.61.609,1.429,1.429,0,0,1,0,1.22c-.342.669-1.055.435-1.829,1.219-.223.226-.711.721-.609,1.219.056.278.444.595,1.219,1.22.474.382.591.447.609.609.067.582-1.287,1.058-1.219,1.219.056.132,1-.081,1.829-.609.37-.235.6-.384.61-.61.018-.375-.573-.778-1.22-1.219-.272-.186-.506-.32-.609-.61a.974.974,0,0,1,0-.609c.227-.64,1.072-.468,1.829-1.22a1.792,1.792,0,0,0,.609-1.219,2.045,2.045,0,0,0-.609-1.219A13.559,13.559,0,0,0,117,99.647a6.064,6.064,0,0,1-.609-.61,2.13,2.13,0,0,1-.61-1.219c.009-.837,1.187-1.551,1.829-1.829.623-.27.993-.239,1.219-.61a1.489,1.489,0,0,0,0-1.219A3.729,3.729,0,0,0,117,92.331c-.97-.562-1.622-.615-1.828-1.219a.828.828,0,0,1,0-.61c.16-.338.53-.278,1.219-.61.74-.356.922-.717,1.219-.609.276.1.237.456.61.609a.878.878,0,0,0,.609,0C119.062,89.816,119.443,89.593,119.44,89.283Z" transform="translate(-53.755 -87.454)"/></svg>