<svg id="Layer_1" data-name="Layer 1" xmlns="http://www.w3.org/2000/svg" viewBox="0 0 169.78 52.64"><defs><style>.cls-1{fill:#00c853;}.cls-2{fill:#fffdfd;}.cls-3{fill:#fff;}</style></defs><title>kwsim-navbar</title><path class="cls-1" d="M-23.65,46.66h-3.19a22.52,22.52,0,0,1,.38,3.57V63.11h-8.22V25.78h8.22V36.33a24.32,24.32,0,0,1-.38,4.43h3.19l9.47-15h8.93l-9.63,14.9a10.09,10.09,0,0,1-2.71,3v.22a10.86,10.86,0,0,1,3.14,3.3l9.85,16h-9.2Z" transform="translate(35 -24)"/><path class="cls-1" d="M43.92,25.78,38,60.83a2.67,2.67,0,0,1-1,1.65,3.06,3.06,0,0,1-2,.63H27.15a3,3,0,0,1-2-.65,2.59,2.59,0,0,1-1-1.68l-4.06-24.4c-.29-1.59-.5-3.15-.65-4.71h-1c0,.11-.09.78-.25,2s-.3,2.14-.4,2.76l-4,24.34a2.59,2.59,0,0,1-1,1.68,3.14,3.14,0,0,1-2,.65H2.89A3.09,3.09,0,0,1,1,62.47,2.69,2.69,0,0,1-.09,60.82l-5.81-35H2.54L6.16,51.69c.22,1.62.38,3.43.49,5.41H7.73c.11-1,.38-2.82.81-5.41l4-23.37a3,3,0,0,1,1-1.84,2.87,2.87,0,0,1,2-.7h7.11a2.76,2.76,0,0,1,1.92.7,2.91,2.91,0,0,1,.94,1.84l4,23.43c.43,2.66.68,4.45.75,5.35H31.4c.14-2,.31-3.82.49-5.3l3.68-26Z" transform="translate(35 -24)"/><path class="cls-2" d="M59.93,49l-7.52-2.65a11.86,11.86,0,0,1-6-4.12,11.75,11.75,0,0,1-1.76-6.81q0-6.16,3-8.25t10.58-2.09a45.82,45.82,0,0,1,12.28,1.46L70,32.16c-3.14-.11-7-.17-11.69-.16a10.79,10.79,0,0,0-4.33.57c-.72.38-1.08,1.32-1.08,2.84a3.63,3.63,0,0,0,.81,2.65,8.38,8.38,0,0,0,3.09,1.57l7.08,2.43A11.79,11.79,0,0,1,70,46.2,11.94,11.94,0,0,1,71.75,53q0,6.28-3,8.52T57.93,63.81A60.09,60.09,0,0,1,45.11,62.4l.49-6q11.52.27,12.33.27c2.2,0,3.67-.23,4.41-.7s1.11-1.44,1.11-2.92a3.74,3.74,0,0,0-.76-2.68A6.72,6.72,0,0,0,59.93,49Z" transform="translate(35 -24)"/><path class="cls-3" d="M122.15,25.78h7.95q3,0,3.08,3.08l1.47,34.25h-7.8l-1.2-30.89h-1L119,55.32A3.06,3.06,0,0,1,115.67,58h-5.41a3.06,3.06,0,0,1-3.36-2.65l-5.68-23.1h-.92L99.22,63.11H91.43l1.35-34.25q.16-3.08,3.09-3.08h8a3,3,0,0,1,3.25,2.65L111.65,47c.29,1.19.63,2.94,1,5.25h.71c0-.18.17-.92.4-2.22s.43-2.31.57-3l4.49-18.61A3.14,3.14,0,0,1,122.15,25.78Z" transform="translate(35 -24)"/><path class="cls-3" d="M-35,67.07h1.35v9.47H-35Z" transform="translate(35 -24)"/><path class="cls-3" d="M-22.7,67.07v9.47h-1.11l-5.68-7.06v7.06h-1.35V67.07h1.11L-24,74.13V67.07Z" transform="translate(35 -24)"/><path class="cls-3" d="M-11.74,67.07v9.47h-1.11l-5.68-7.06v7.06h-1.35V67.07h1.11l5.67,7.06V67.07Z" transform="translate(35 -24)"/><path class="cls-3" d="M-9.7,71.81A4.81,4.81,0,0,1-4.92,67h.22A4.83,4.83,0,0,1,.35,71.59a4.83,4.83,0,0,1-4.61,5,3.23,3.23,0,0,1-.44,0,4.81,4.81,0,0,1-5-4.6Zm8.71,0a3.68,3.68,0,0,0-3.63-3.73,3.68,3.68,0,0,0-3.73,3.63,3.68,3.68,0,0,0,3.63,3.73h.06A3.56,3.56,0,0,0-1,72Z" transform="translate(35 -24)"/><path class="cls-3" d="M10.33,67.07,6.18,76.54H4.84L.65,67.07H2.11l3.41,7.78L9,67.07Z" transform="translate(35 -24)"/><path class="cls-3" d="M17.24,74.17h-5l-1,2.37H9.78l4.28-9.47H15.4l4.3,9.47H18.28Zm-.47-1.08-2-4.64-2,4.64Z" transform="translate(35 -24)"/><path class="cls-3" d="M22.49,68.25H19.24V67.07h7.83v1.18H23.83v8.29H22.49Z" transform="translate(35 -24)"/><path class="cls-3" d="M28.52,67.07h1.35v9.47H28.52Z" transform="translate(35 -24)"/><path class="cls-3" d="M31.92,71.81a5,5,0,1,1,5.17,4.83h-.17a4.81,4.81,0,0,1-5-4.6Zm8.7,0a3.68,3.68,0,1,0-3.73,3.63H37A3.55,3.55,0,0,0,40.65,72v-.22Z" transform="translate(35 -24)"/><path class="cls-3" d="M52.16,67.07v9.47H51.05l-5.68-7.06v7.06H44V67.07h1.11l5.68,7.06V67.07Z" transform="translate(35 -24)"/><path class="cls-3" d="M74.58,76.54v-6.9l-3.42,5.75h-.62l-3.42-5.71v6.86h-1.3V67.07h1.11l3.94,6.65,3.9-6.65h1.11v9.47Z" transform="translate(35 -24)"/><path class="cls-3" d="M85.57,75.36v1.18H78.7V67.07h6.68v1.18H80.05v2.91h4.74v1.15H80.05v3Z" transform="translate(35 -24)"/><path class="cls-3" d="M87.73,67.07h4c3,0,5.11,1.92,5.11,4.74s-2.07,4.73-5.11,4.73h-4Zm3.91,8.29c2.34,0,3.84-1.43,3.84-3.55s-1.5-3.56-3.84-3.56H89.08v7.11Z" transform="translate(35 -24)"/><path class="cls-3" d="M98.88,67.07h1.35v9.47H98.88Z" transform="translate(35 -24)"/><path class="cls-3" d="M102.27,71.81A4.78,4.78,0,0,1,107,67a2.25,2.25,0,0,1,.26,0,4.65,4.65,0,0,1,3.59,1.47l-.88.85a3.47,3.47,0,0,0-2.66-1.12,3.64,3.64,0,1,0-.38,7.27,2.41,2.41,0,0,0,.38,0A3.52,3.52,0,0,0,110,74.31l.88.85a4.72,4.72,0,0,1-3.61,1.48,4.78,4.78,0,0,1-5-4.58Z" transform="translate(35 -24)"/><path class="cls-3" d="M112.79,67.07h1.35v9.47h-1.35Z" transform="translate(35 -24)"/><path class="cls-3" d="M125.1,67.07v9.47H124l-5.68-7.06v7.06H117V67.07h1.11l5.67,7.06V67.07Z" transform="translate(35 -24)"/><path class="cls-3" d="M134.78,75.36v1.18h-6.87V67.07h6.68v1.18h-5.32v2.91H134v1.15h-4.74v3Z" transform="translate(35 -24)"/><circle class="cls-3" cx="93.93" cy="48.03" r="2.28"/><path class="cls-1" d="M87.72,28.52c-.06.15-1.13,0-1.13,0s-1.22-1-1.13-1.13S87.8,28.28,87.72,28.52Z" transform="translate(35 -24)"/><polygon class="cls-3" points="113.69 0 114.3 10.63 115.95 39.5 117.08 39.5 117.08 2.26 115.95 2.26 113.69 0"/><path class="cls-1" d="M86.59,27.39c0-.67-1-1.06-1.13-1.13a3.64,3.64,0,0,0-2.26,0c-3.73,1-4.52.07-5.64,1.13a3.6,3.6,0,0,0-1.13,3.39c.83,2.47,5.73,1.68,6.77,4.51a3.5,3.5,0,0,1,0,2.26c-.15.41-.48,1-2.25,2.25-2.27,1.55-3.06,1.42-3.39,2.26-.41,1.06.41,2.31,1.13,3.39a13.44,13.44,0,0,0,3.39,3.38A2.9,2.9,0,0,1,83.2,50a2.63,2.63,0,0,1,0,2.26c-.63,1.24-2,.8-3.38,2.25-.41.42-1.32,1.34-1.13,2.26.1.51.82,1.1,2.26,2.26.88.71,1.09.83,1.13,1.13.12,1.07-2.39,2-2.26,2.25s1.84-.15,3.38-1.13c.69-.43,1.11-.71,1.13-1.12,0-.7-1.06-1.44-2.25-2.26-.51-.34-.94-.59-1.13-1.13a1.82,1.82,0,0,1,0-1.13c.42-1.18,2-.86,3.38-2.25a3.3,3.3,0,0,0,1.13-2.26,3.83,3.83,0,0,0-1.13-2.26,25.26,25.26,0,0,0-2.25-2.26A10,10,0,0,1,81,45.45a4,4,0,0,1-1.13-2.26c0-1.55,2.2-2.87,3.38-3.39s1.84-.44,2.26-1.12a2.78,2.78,0,0,0,0-2.26c-.61-1.76-2.27-2.74-3.38-3.39-1.8-1-3-1.14-3.39-2.25a1.57,1.57,0,0,1,0-1.13c.3-.63,1-.52,2.26-1.13s1.71-1.33,2.25-1.13.44.84,1.13,1.13a1.69,1.69,0,0,0,1.13,0C85.89,28.38,86.59,27.93,86.59,27.39Z" transform="translate(35 -24)"/></svg>