<svg xmlns="http://www.w3.org/2000/svg" id="Layer_2" data-name="Layer 2" viewBox="0 0 95.63 29.65"><defs><style>.cls-1{fill:#00c853}.cls-2{fill:#fffdfd}.cls-3{fill:#fff}</style></defs><title>kwsim-logo-v4</title><path d="M58.23,99.64h-1.8a12.64,12.64,0,0,1,.22,2v7.26H52v-21h4.64v5.94a13.93,13.93,0,0,1-.22,2.5h1.8l5.33-8.44h5l-5.42,8.38a5.71,5.71,0,0,1-1.53,1.68v.12a6.26,6.26,0,0,1,1.77,1.86l5.54,9H63.77Z" class="cls-1" transform="translate(-51.83 -86.88)"/><path d="M96.29,87.88,93,107.63a1.57,1.57,0,0,1-.57.93,1.78,1.78,0,0,1-1.1.35H86.84a1.74,1.74,0,0,1-1.1-.37,1.52,1.52,0,0,1-.55-.94L82.91,93.85c-.16-.89-.28-1.77-.37-2.65H82c0,.06,0,.44-.14,1.13s-.17,1.21-.23,1.55L79.34,107.6a1.41,1.41,0,0,1-.56.94,1.77,1.77,0,0,1-1.11.37H73.22a1.77,1.77,0,0,1-1.08-.35,1.57,1.57,0,0,1-.6-.93L68.22,87.88H73l2,14.6c.12.91.21,1.93.27,3h.61c.06-.56.21-1.58.46-3l2.25-13.17a1.62,1.62,0,0,1,.54-1,1.56,1.56,0,0,1,1.11-.4h4a1.52,1.52,0,0,1,1.08.4,1.67,1.67,0,0,1,.54,1l2.25,13.2c.24,1.5.39,2.51.43,3h.64c.08-1.15.17-2.15.27-3l2.07-14.66Z" class="cls-1" transform="translate(-51.83 -86.88)"/><path d="M105.3,101l-4.23-1.49a5.78,5.78,0,0,1-4.36-6.15c0-2.32.57-3.87,1.69-4.65s3.12-1.17,6-1.17a25.5,25.5,0,0,1,6.92.82L111,91.48c-1.76-.06-4-.09-6.58-.09a6,6,0,0,0-2.44.32c-.4.21-.61.74-.61,1.6a2.07,2.07,0,0,0,.46,1.49,4.65,4.65,0,0,0,1.74.88l4,1.37a5.78,5.78,0,0,1,4.45,6.19q0,3.54-1.71,4.8t-6.09,1.26a33.82,33.82,0,0,1-7.22-.79l.27-3.35,7,.15a5.26,5.26,0,0,0,2.48-.39,1.83,1.83,0,0,0,.63-1.65,2.18,2.18,0,0,0-.43-1.51A4,4,0,0,0,105.3,101Z" class="cls-2" transform="translate(-51.83 -86.88)"/><path d="M140.34,87.88h4.48a1.57,1.57,0,0,1,1.74,1.74l.82,19.29H143l-.71-17.4h-.51l-3.17,13a1.73,1.73,0,0,1-1.89,1.49h-3.05a1.73,1.73,0,0,1-1.89-1.49l-3.2-13h-.52l-.6,17.4h-4.39l.76-19.29a1.59,1.59,0,0,1,1.74-1.74H130a1.71,1.71,0,0,1,1.83,1.5l2.56,10.48c.17.67.35,1.65.55,3h.4c0-.1.09-.52.23-1.25s.23-1.3.32-1.7l2.53-10.48A1.76,1.76,0,0,1,140.34,87.88Z" class="cls-3" transform="translate(-51.83 -86.88)"/><path d="M51.83,111.14h.77v5.33h-.77Z" class="cls-3" transform="translate(-51.83 -86.88)"/><path d="M58.76,111.14v5.33h-.62l-3.2-4v4h-.76v-5.33h.62l3.2,4v-4Z" class="cls-3" transform="translate(-51.83 -86.88)"/><path d="M64.93,111.14v5.33h-.62l-3.2-4v4h-.76v-5.33H61l3.2,4v-4Z" class="cls-3" transform="translate(-51.83 -86.88)"/><path d="M66.09,113.8a2.83,2.83,0,1,1,2.84,2.73A2.7,2.7,0,0,1,66.09,113.8Zm4.9,0a2.07,2.07,0,1,0-2.06,2A2,2,0,0,0,71,113.8Z" class="cls-3" transform="translate(-51.83 -86.88)"/><path d="M77.37,111.14,75,116.47h-.76l-2.34-5.33h.82l1.92,4.38,1.93-4.38Z" class="cls-3" transform="translate(-51.83 -86.88)"/><path d="M81.26,115.14H78.43l-.59,1.33h-.78l2.41-5.33h.75l2.42,5.33h-.8Zm-.27-.61-1.15-2.62-1.15,2.62Z" class="cls-3" transform="translate(-51.83 -86.88)"/><path d="M84.21,111.8H82.39v-.66H86.8v.66H85v4.67h-.76Z" class="cls-3" transform="translate(-51.83 -86.88)"/><path d="M87.61,111.14h.76v5.33h-.76Z" class="cls-3" transform="translate(-51.83 -86.88)"/><path d="M89.52,113.8a2.84,2.84,0,1,1,2.84,2.73A2.71,2.71,0,0,1,89.52,113.8Zm4.91,0a2.07,2.07,0,1,0-2.07,2A2,2,0,0,0,94.43,113.8Z" class="cls-3" transform="translate(-51.83 -86.88)"/><path d="M100.93,111.14v5.33h-.63l-3.2-4v4h-.76v-5.33H97l3.19,4v-4Z" class="cls-3" transform="translate(-51.83 -86.88)"/><path d="M113.56,116.47v-3.89l-1.93,3.24h-.35l-1.93-3.21v3.86h-.73v-5.33h.63l2.22,3.74,2.19-3.74h.63v5.33Z" class="cls-3" transform="translate(-51.83 -86.88)"/><path d="M119.74,115.81v.66h-3.87v-5.33h3.76v.66h-3v1.64h2.68v.64h-2.68v1.73Z" class="cls-3" transform="translate(-51.83 -86.88)"/><path d="M121,111.14h2.25a2.67,2.67,0,1,1,0,5.33H121Zm2.2,4.67a2,2,0,1,0,0-4h-1.44v4Z" class="cls-3" transform="translate(-51.83 -86.88)"/><path d="M127.24,111.14H128v5.33h-.76Z" class="cls-3" transform="translate(-51.83 -86.88)"/><path d="M129.15,113.8a2.69,2.69,0,0,1,2.82-2.72,2.63,2.63,0,0,1,2,.83l-.5.48a2,2,0,0,0-1.5-.64,2.05,2.05,0,1,0,0,4.1,2,2,0,0,0,1.5-.64l.5.48a2.64,2.64,0,0,1-2,.84A2.69,2.69,0,0,1,129.15,113.8Z" class="cls-3" transform="translate(-51.83 -86.88)"/><path d="M135.08,111.14h.76v5.33h-.76Z" class="cls-3" transform="translate(-51.83 -86.88)"/><path d="M142,111.14v5.33h-.63l-3.2-4v4h-.76v-5.33h.63l3.2,4v-4Z" class="cls-3" transform="translate(-51.83 -86.88)"/><path d="M147.46,115.81v.66h-3.87v-5.33h3.76v.66h-3v1.64H147v.64h-2.68v1.73Z" class="cls-3" transform="translate(-51.83 -86.88)"/><circle cx="52.9" cy="27.05" r="1.28" class="cls-3"/><path d="M121,89.42c0,.09-.63,0-.63,0s-.69-.55-.64-.63S121,89.29,121,89.42Z" class="cls-1" transform="translate(-51.83 -86.88)"/><polygon points="64.03 0 64.38 5.99 65.31 22.25 65.94 22.25 65.94 1.27 65.31 1.27 64.03 0" class="cls-3"/><path d="M120.32,88.79c0-.38-.55-.6-.64-.64a2,2,0,0,0-1.27,0c-2.1.54-2.55,0-3.18.64a2,2,0,0,0-.63,1.9c.46,1.4,3.22,1,3.81,2.55a2,2,0,0,1,0,1.27c-.09.23-.28.59-1.27,1.27-1.28.87-1.72.79-1.91,1.27s.23,1.3.64,1.91a7.34,7.34,0,0,0,1.9,1.9,1.63,1.63,0,0,1,.64.64,1.48,1.48,0,0,1,0,1.27c-.36.7-1.1.45-1.91,1.27-.23.24-.74.75-.63,1.27.06.29.46.62,1.27,1.27.49.4.61.47.63.64.07.61-1.34,1.1-1.27,1.27s1-.08,1.91-.64c.39-.24.62-.4.64-.63,0-.39-.6-.81-1.28-1.27-.28-.2-.52-.34-.63-.64a1,1,0,0,1,0-.63c.24-.67,1.12-.49,1.91-1.27a1.87,1.87,0,0,0,.63-1.28,2.14,2.14,0,0,0-.63-1.27c-.09-.1-.21-.25-1.28-1.27a6.37,6.37,0,0,1-.63-.63,2.27,2.27,0,0,1-.64-1.27c0-.88,1.24-1.62,1.91-1.91s1-.25,1.27-.64a1.57,1.57,0,0,0,0-1.27,3.86,3.86,0,0,0-1.91-1.9c-1-.59-1.69-.65-1.9-1.28a.82.82,0,0,1,0-.63c.16-.35.55-.29,1.27-.64s1-.75,1.27-.63.25.47.64.63a.86.86,0,0,0,.63,0C119.92,89.34,120.32,89.11,120.32,88.79Z" class="cls-1" transform="translate(-51.83 -86.88)"/></svg>