<svg id="Layer_2" data-name="Layer 2" xmlns="http://www.w3.org/2000/svg" width="169.78" height="52.64" viewBox="0 0 169.78 52.64"><defs><style>.cls-1{fill:#00c853;}.cls-2{fill:#fffdfd;}.cls-3{fill:#fff;}</style></defs><title>kwsim-logo-v3</title><path class="cls-1" d="M11.35,22.66H8.16a22.52,22.52,0,0,1,.38,3.57V39.11H.32V1.78H8.54V12.33a24.32,24.32,0,0,1-.38,4.43h3.19l9.47-15h8.93l-9.63,14.9a10.09,10.09,0,0,1-2.71,3v.22a10.86,10.86,0,0,1,3.14,3.3l9.85,16H21.2Z"/><path class="cls-1" d="M78.92,1.78,73,36.83a2.67,2.67,0,0,1-1,1.65,3.06,3.06,0,0,1-2,.63H62.15a3,3,0,0,1-2-.65,2.59,2.59,0,0,1-1-1.68l-4.06-24.4c-.29-1.59-.5-3.15-.65-4.71h-1c0,.11-.09.78-.25,2s-.3,2.14-.4,2.76l-4,24.34a2.59,2.59,0,0,1-1,1.68,3.14,3.14,0,0,1-2,.65h-7.9A3.09,3.09,0,0,1,36,38.47a2.69,2.69,0,0,1-1.06-1.65l-5.81-35h8.44l3.62,25.91c.22,1.62.38,3.43.49,5.41h1.08c.11-1,.38-2.82.81-5.41l4-23.37a3,3,0,0,1,1-1.84,2.87,2.87,0,0,1,2-.7h7.11a2.76,2.76,0,0,1,1.92.7,2.91,2.91,0,0,1,.94,1.84l4,23.43c.43,2.66.68,4.45.75,5.35H66.4c.14-2,.31-3.82.49-5.3l3.68-26Z"/><path class="cls-2" d="M94.93,25l-7.52-2.65a11.86,11.86,0,0,1-6-4.12,11.75,11.75,0,0,1-1.76-6.81q0-6.17,3-8.25T93.23,1.07a45.82,45.82,0,0,1,12.28,1.46L105,8.16c-3.14-.11-7-.17-11.69-.16A10.79,10.79,0,0,0,89,8.57c-.72.38-1.08,1.32-1.08,2.84a3.63,3.63,0,0,0,.81,2.65,8.38,8.38,0,0,0,3.09,1.57l7.08,2.43A11.79,11.79,0,0,1,105,22.2,11.94,11.94,0,0,1,106.75,29q0,6.28-3,8.52T92.93,39.81A60.09,60.09,0,0,1,80.11,38.4l.49-6q11.52.27,12.33.27c2.2,0,3.67-.23,4.41-.7s1.11-1.44,1.11-2.92a3.74,3.74,0,0,0-.76-2.68A6.72,6.72,0,0,0,94.93,25Z"/><path class="cls-3" d="M157.15,1.78h7.95q3,0,3.08,3.08l1.47,34.25h-7.8l-1.2-30.89h-1L154,31.32A3.06,3.06,0,0,1,150.67,34h-5.41a3.06,3.06,0,0,1-3.36-2.65l-5.68-23.1h-.92l-1.08,30.89h-7.79l1.35-34.25q.16-3.07,3.09-3.08h8a3,3,0,0,1,3.25,2.65L146.65,23c.29,1.19.63,2.94,1,5.25h.71c0-.18.17-.92.4-2.22s.43-2.31.57-3l4.49-18.61A3.14,3.14,0,0,1,157.15,1.78Z"/><path class="cls-3" d="M0,43.07H1.35v9.47H0Z"/><path class="cls-3" d="M12.3,43.07v9.47H11.19L5.51,45.48v7.06H4.16V43.07H5.27L11,50.13V43.07Z"/><path class="cls-3" d="M23.26,43.07v9.47H22.15l-5.68-7.06v7.06H15.12V43.07h1.11l5.67,7.06V43.07Z"/><path class="cls-3" d="M25.3,47.81A4.81,4.81,0,0,1,30.08,43h.22a4.84,4.84,0,0,1,.44,9.67H30.3a4.81,4.81,0,0,1-5-4.6Zm8.71,0a3.68,3.68,0,1,0-3.73,3.63h.06A3.56,3.56,0,0,0,34,48Z"/><path class="cls-3" d="M45.33,43.07l-4.15,9.47H39.84l-4.19-9.47h1.46l3.41,7.78L44,43.07Z"/><path class="cls-3" d="M52.24,50.17h-5l-1,2.37H44.78l4.28-9.47H50.4l4.3,9.47H53.28Zm-.47-1.08-2-4.64-2,4.64Z"/><path class="cls-3" d="M57.49,44.25H54.24V43.07h7.83v1.18H58.83v8.29H57.49Z"/><path class="cls-3" d="M63.52,43.07h1.35v9.47H63.52Z"/><path class="cls-3" d="M66.92,47.81a5,5,0,1,1,5.17,4.83h-.17a4.81,4.81,0,0,1-5-4.6Zm8.7,0a3.68,3.68,0,1,0-3.73,3.63H72A3.55,3.55,0,0,0,75.65,48v-.22Z"/><path class="cls-3" d="M87.16,43.07v9.47H86.05l-5.68-7.06v7.06H79V43.07h1.11l5.68,7.06V43.07Z"/><path class="cls-3" d="M109.58,52.54v-6.9l-3.42,5.75h-.62l-3.42-5.71v6.86h-1.3V43.07h1.11l3.94,6.65,3.9-6.65h1.11v9.47Z"/><path class="cls-3" d="M120.57,51.36v1.18H113.7V43.07h6.68v1.18h-5.33v2.91h4.74v1.15h-4.74v3Z"/><path class="cls-3" d="M122.73,43.07h4c3,0,5.11,1.92,5.11,4.74s-2.07,4.73-5.11,4.73h-4Zm3.91,8.29c2.34,0,3.84-1.43,3.84-3.55s-1.5-3.56-3.84-3.56h-2.56v7.11Z"/><path class="cls-3" d="M133.88,43.07h1.35v9.47h-1.35Z"/><path class="cls-3" d="M137.27,47.81A4.78,4.78,0,0,1,142,43h.26a4.65,4.65,0,0,1,3.59,1.47l-.88.85a3.47,3.47,0,0,0-2.66-1.12,3.64,3.64,0,1,0-.38,7.27,2.41,2.41,0,0,0,.38,0A3.52,3.52,0,0,0,145,50.31l.88.85a4.72,4.72,0,0,1-3.61,1.48,4.78,4.78,0,0,1-5-4.58Z"/><path class="cls-3" d="M147.79,43.07h1.35v9.47h-1.35Z"/><path class="cls-3" d="M160.1,43.07v9.47H159l-5.68-7.06v7.06H152V43.07h1.11l5.67,7.06V43.07Z"/><path class="cls-3" d="M169.78,51.36v1.18h-6.87V43.07h6.68v1.18h-5.32v2.91H169v1.15h-4.74v3Z"/><circle class="cls-3" cx="93.93" cy="48.03" r="2.28"/><path class="cls-1" d="M122.72,4.52c-.06.15-1.13,0-1.13,0s-1.22-1-1.13-1.13S122.8,4.28,122.72,4.52Z"/><polygon class="cls-3" points="113.69 0 114.3 10.63 115.95 39.5 117.08 39.5 117.08 2.26 115.95 2.26 113.69 0"/><path class="cls-1" d="M121.59,3.39c0-.67-1-1.06-1.13-1.13a3.64,3.64,0,0,0-2.26,0c-3.73,1-4.52.07-5.64,1.13a3.6,3.6,0,0,0-1.13,3.39c.83,2.47,5.73,1.68,6.77,4.51a3.5,3.5,0,0,1,0,2.26c-.15.41-.48,1-2.25,2.25-2.27,1.55-3.06,1.42-3.39,2.26-.41,1.06.41,2.31,1.13,3.39a13.44,13.44,0,0,0,3.39,3.38A2.9,2.9,0,0,1,118.2,26a2.63,2.63,0,0,1,0,2.26c-.63,1.24-2,.8-3.38,2.25-.41.42-1.32,1.34-1.13,2.26.1.51.82,1.1,2.26,2.26.88.71,1.09.83,1.13,1.13.12,1.07-2.39,2-2.26,2.25s1.84-.15,3.38-1.13c.69-.43,1.11-.71,1.13-1.12,0-.7-1.06-1.44-2.25-2.26-.51-.34-.94-.59-1.13-1.13a1.82,1.82,0,0,1,0-1.13c.42-1.18,2-.86,3.38-2.25a3.3,3.3,0,0,0,1.13-2.26,3.83,3.83,0,0,0-1.13-2.26,25.26,25.26,0,0,0-2.25-2.26A10,10,0,0,1,116,21.45a4,4,0,0,1-1.13-2.26c0-1.55,2.2-2.87,3.38-3.39s1.84-.44,2.26-1.12a2.78,2.78,0,0,0,0-2.26c-.61-1.76-2.27-2.74-3.38-3.39-1.8-1-3-1.14-3.39-2.25a1.57,1.57,0,0,1,0-1.13c.3-.63,1-.52,2.26-1.13s1.71-1.33,2.25-1.13.44.84,1.13,1.13a1.69,1.69,0,0,0,1.13,0C120.89,4.38,121.59,3.93,121.59,3.39Z"/></svg>