<svg id="Layer_2" data-name="Layer 2" xmlns="http://www.w3.org/2000/svg" viewBox="0 0 91.73 28.45"><defs><style>.cls-1{fill:#00c853;}.cls-2{fill:#fff;}</style></defs><title>kwsim-logo-edit</title><path class="cls-1" d="M59.89,99.7H58.16a11.31,11.31,0,0,1,.21,1.93v7H53.93V88.42h4.44v5.7a12.81,12.81,0,0,1-.21,2.39h1.73L65,88.42h4.82l-5.2,8a5.32,5.32,0,0,1-1.46,1.6v.12a6,6,0,0,1,1.7,1.78l5.31,8.62h-5Z" transform="translate(-53.76 -87.45)"/><path class="cls-1" d="M96.39,88.42,93.2,107.36a1.45,1.45,0,0,1-.55.89,1.69,1.69,0,0,1-1.05.33H87.33a1.59,1.59,0,0,1-1-.35,1.4,1.4,0,0,1-.53-.9L83.56,94.15c-.16-.86-.27-1.71-.35-2.55h-.56c0,.06,0,.42-.13,1.09s-.16,1.15-.22,1.49l-2.16,13.15a1.37,1.37,0,0,1-.54.9,1.66,1.66,0,0,1-1.07.35H74.27a1.72,1.72,0,0,1-1-.33,1.48,1.48,0,0,1-.57-.89L69.47,88.42H74l2,14c.12.87.21,1.85.26,2.92h.59c.06-.55.2-1.52.44-2.92l2.16-12.63a1.59,1.59,0,0,1,.51-1A1.56,1.56,0,0,1,81,88.42h3.86a1.51,1.51,0,0,1,1,.38,1.54,1.54,0,0,1,.51,1l2.17,12.66c.23,1.44.37,2.4.41,2.89h.61c.08-1.11.16-2.06.26-2.86l2-14.06Z" transform="translate(-53.76 -87.45)"/><path class="cls-2" d="M105,101,101,99.52a5.53,5.53,0,0,1-4.18-5.9q0-3.33,1.62-4.46c1.08-.75,3-1.12,5.71-1.12a24.31,24.31,0,0,1,6.64.79l-.29,3c-1.7-.06-3.8-.09-6.32-.09a5.62,5.62,0,0,0-2.33.31c-.39.2-.59.71-.59,1.53a2,2,0,0,0,.44,1.43,4.45,4.45,0,0,0,1.66.85l3.83,1.32a6.42,6.42,0,0,1,3.31,2.23,6.49,6.49,0,0,1,1,3.7q0,3.39-1.64,4.6T104,109A32.46,32.46,0,0,1,97,108.2L97.3,105l6.66.15a5,5,0,0,0,2.38-.38,1.75,1.75,0,0,0,.6-1.58,2.08,2.08,0,0,0-.41-1.45A3.68,3.68,0,0,0,105,101Z" transform="translate(-53.76 -87.45)"/><path class="cls-2" d="M138.65,88.42H143a1.5,1.5,0,0,1,1.66,1.66l.79,18.5h-4.21l-.67-16.68H140l-3,12.48a1.65,1.65,0,0,1-1.81,1.43h-2.92a1.65,1.65,0,0,1-1.81-1.43L127.37,91.9h-.5l-.58,16.68h-4.21l.73-18.5c.06-1.11.61-1.66,1.66-1.66h4.3a1.64,1.64,0,0,1,1.75,1.43L133,99.9c.15.65.33,1.59.52,2.84h.38c0-.1.1-.5.22-1.2s.23-1.25.31-1.64l2.43-10.05A1.69,1.69,0,0,1,138.65,88.42Z" transform="translate(-53.76 -87.45)"/><path class="cls-2" d="M53.76,110.73h.73v5.11h-.73Z" transform="translate(-53.76 -87.45)"/><path class="cls-2" d="M60.41,110.73v5.11h-.6L56.74,112v3.81H56v-5.11h.59l3.07,3.81v-3.81Z" transform="translate(-53.76 -87.45)"/><path class="cls-2" d="M66.32,110.73v5.11h-.6L62.65,112v3.81h-.73v-5.11h.6l3.07,3.81v-3.81Z" transform="translate(-53.76 -87.45)"/><path class="cls-2" d="M67.42,113.28a2.72,2.72,0,1,1,2.73,2.62A2.6,2.6,0,0,1,67.42,113.28Zm4.71,0a2,2,0,1,0-2,2A1.92,1.92,0,0,0,72.13,113.28Z" transform="translate(-53.76 -87.45)"/><path class="cls-2" d="M78.25,110.73,76,115.84h-.72L73,110.73h.79l1.84,4.2,1.86-4.2Z" transform="translate(-53.76 -87.45)"/><path class="cls-2" d="M82,114.56H79.26l-.56,1.28H78l2.31-5.11H81l2.32,5.11h-.77Zm-.25-.58-1.11-2.51L79.52,114Z" transform="translate(-53.76 -87.45)"/><path class="cls-2" d="M84.81,111.36H83.06v-.63h4.23v.63H85.54v4.48h-.73Z" transform="translate(-53.76 -87.45)"/><path class="cls-2" d="M88.07,110.73h.73v5.11h-.73Z" transform="translate(-53.76 -87.45)"/><path class="cls-2" d="M89.91,113.28a2.72,2.72,0,1,1,2.72,2.62A2.6,2.6,0,0,1,89.91,113.28Zm4.7,0a2,2,0,1,0-2,2A1.91,1.91,0,0,0,94.61,113.28Z" transform="translate(-53.76 -87.45)"/><path class="cls-2" d="M100.85,110.73v5.11h-.6L97.18,112v3.81h-.73v-5.11h.6l3.07,3.81v-3.81Z" transform="translate(-53.76 -87.45)"/><path class="cls-2" d="M113,115.84v-3.72l-1.85,3.1h-.33l-1.85-3.08v3.7h-.7v-5.11h.6l2.13,3.59,2.11-3.59h.59v5.11Z" transform="translate(-53.76 -87.45)"/><path class="cls-2" d="M118.89,115.21v.63h-3.71v-5.11h3.61v.63h-2.88v1.57h2.57v.62h-2.57v1.66Z" transform="translate(-53.76 -87.45)"/><path class="cls-2" d="M120.06,110.73h2.16a2.56,2.56,0,1,1,0,5.11h-2.16Zm2.11,4.48a1.93,1.93,0,1,0,0-3.85h-1.38v3.85Z" transform="translate(-53.76 -87.45)"/><path class="cls-2" d="M126.08,110.73h.73v5.11h-.73Z" transform="translate(-53.76 -87.45)"/><path class="cls-2" d="M127.91,113.28a2.59,2.59,0,0,1,2.72-2.61,2.54,2.54,0,0,1,1.94.79l-.48.46a1.89,1.89,0,0,0-1.43-.6,2,2,0,1,0,0,3.93,1.9,1.9,0,0,0,1.43-.61l.48.46a2.55,2.55,0,0,1-1.95.8A2.59,2.59,0,0,1,127.91,113.28Z" transform="translate(-53.76 -87.45)"/><path class="cls-2" d="M133.6,110.73h.73v5.11h-.73Z" transform="translate(-53.76 -87.45)"/><path class="cls-2" d="M140.25,110.73v5.11h-.6L136.58,112v3.81h-.73v-5.11h.6l3.07,3.81v-3.81Z" transform="translate(-53.76 -87.45)"/><path class="cls-2" d="M145.48,115.21v.63h-3.71v-5.11h3.61v.63H142.5v1.57h2.56v.62H142.5v1.66Z" transform="translate(-53.76 -87.45)"/><circle class="cls-2" cx="50.74" cy="25.94" r="1.23"/><path class="cls-1" d="M120.05,89.89c0,.09-.61,0-.61,0s-.66-.53-.61-.61A2.61,2.61,0,0,1,120.05,89.89Z" transform="translate(-53.76 -87.45)"/><polygon class="cls-2" points="61.42 0 61.74 5.75 62.64 21.34 63.25 21.34 63.25 1.22 62.64 1.22 61.42 0"/><path class="cls-1" d="M119.44,89.28c0-.36-.53-.57-.61-.61a1.93,1.93,0,0,0-1.22,0c-2,.52-2.45,0-3,.61a2,2,0,0,0-.61,1.83c.45,1.34,3.1.91,3.66,2.44a1.89,1.89,0,0,1,0,1.22c-.08.23-.26.57-1.22,1.22-1.23.83-1.65.76-1.83,1.22s.23,1.24.61,1.83a7.29,7.29,0,0,0,1.83,1.83,1.49,1.49,0,0,1,.61.61,1.42,1.42,0,0,1,0,1.21c-.34.67-1,.44-1.83,1.22-.22.23-.71.72-.61,1.22.06.28.45.6,1.22,1.22.48.38.59.45.61.61.07.58-1.29,1.06-1.22,1.22s1-.08,1.83-.61c.37-.23.6-.38.61-.61s-.57-.78-1.22-1.22c-.27-.18-.51-.32-.61-.61a1,1,0,0,1,0-.61c.23-.64,1.07-.46,1.83-1.22a1.74,1.74,0,0,0,.61-1.21,2,2,0,0,0-.61-1.22A10.79,10.79,0,0,0,117,99.65a7.5,7.5,0,0,1-.61-.61,2.19,2.19,0,0,1-.61-1.22c0-.84,1.19-1.55,1.83-1.83s1-.24,1.22-.61a1.49,1.49,0,0,0,0-1.22A3.73,3.73,0,0,0,117,92.33c-1-.56-1.62-.61-1.83-1.22a.87.87,0,0,1,0-.61c.16-.34.53-.28,1.22-.61s.92-.72,1.22-.61.24.46.61.61a.86.86,0,0,0,.61,0C119.06,89.82,119.44,89.59,119.44,89.28Z" transform="translate(-53.76 -87.45)"/></svg>