<svg xmlns="http://www.w3.org/2000/svg" id="Layer_2" width="169.78" height="52.64" data-name="Layer 2" viewBox="0 0 169.78 52.64"><defs><style>.cls-1{fill:#00c853}</style></defs><title>kwsim-logo</title><path d="M26.7,98.73H23.51a21.73,21.73,0,0,1,.38,3.57v12.88H15.67V77.85h8.22V88.4a24.7,24.7,0,0,1-.38,4.43H26.7l9.47-15H45.1L35.47,92.73a10,10,0,0,1-2.71,3v.22a10.84,10.84,0,0,1,3.14,3.3l9.85,16h-9.2Z" class="cls-1" transform="translate(-15.35 -76.07)"/><path d="M94.27,77.85l-5.9,35.05a2.66,2.66,0,0,1-1,1.65,3.08,3.08,0,0,1-1.95.63H77.5a3,3,0,0,1-2-.65,2.62,2.62,0,0,1-1-1.68l-4.06-24.4c-.29-1.59-.5-3.15-.65-4.71h-1c0,.11-.09.78-.25,2s-.3,2.14-.4,2.76l-4,24.34a2.57,2.57,0,0,1-1,1.68,3.15,3.15,0,0,1-2,.65h-7.9a3.12,3.12,0,0,1-1.92-.63,2.68,2.68,0,0,1-1.06-1.65L44.45,77.85h8.44l3.62,25.91c.22,1.62.38,3.43.49,5.41h1.08q.16-1.52.81-5.41l4-23.37a3,3,0,0,1,1-1.84,2.84,2.84,0,0,1,2-.7H73a2.79,2.79,0,0,1,1.92.7,2.91,2.91,0,0,1,.94,1.84l4,23.43c.43,2.66.68,4.45.75,5.35h1.14c.14-2,.31-3.82.49-5.3l3.68-26Z" class="cls-1" transform="translate(-15.35 -76.07)"/><path d="M110.28,101.06l-7.52-2.65a11.89,11.89,0,0,1-6-4.12A11.79,11.79,0,0,1,95,87.48q0-6.17,3-8.25t10.58-2.09a45.47,45.47,0,0,1,12.28,1.46l-.54,5.63q-4.71-.17-11.69-.16a10.75,10.75,0,0,0-4.33.57c-.72.38-1.08,1.32-1.08,2.84a3.65,3.65,0,0,0,.81,2.65,8.31,8.31,0,0,0,3.09,1.57l7.08,2.43a11.81,11.81,0,0,1,6.12,4.14,11.94,11.94,0,0,1,1.78,6.84q0,6.28-3,8.52t-10.82,2.25a60.28,60.28,0,0,1-12.82-1.41l.49-6q11.52.27,12.33.27c2.2,0,3.67-.23,4.41-.7s1.11-1.44,1.11-2.92a3.78,3.78,0,0,0-.76-2.68A6.8,6.8,0,0,0,110.28,101.06Z" transform="translate(-15.35 -76.07)"/><path d="M172.5,77.85h7.95q3,0,3.08,3.08L185,115.18H177.2L176,84.29H175l-5.63,23.1a3.06,3.06,0,0,1-3.35,2.65h-5.41a3.06,3.06,0,0,1-3.36-2.65l-5.68-23.1h-.92l-1.08,30.89h-7.79l1.35-34.25q.17-3.08,3.09-3.08h8a3,3,0,0,1,3.25,2.65L162,99.11q.44,1.78,1,5.25h.71c0-.18.17-.92.4-2.22s.43-2.31.57-3l4.49-18.61A3.14,3.14,0,0,1,172.5,77.85Z" transform="translate(-15.35 -76.07)"/><path d="M15.35,119.14H16.7v9.47H15.35Z" transform="translate(-15.35 -76.07)"/><path d="M27.65,119.14v9.47H26.54l-5.68-7.06v7.06H19.51v-9.47h1.11l5.68,7.06v-7.06Z" transform="translate(-15.35 -76.07)"/><path d="M38.61,119.14v9.47H37.5l-5.68-7.06v7.06H30.47v-9.47h1.11l5.67,7.06v-7.06Z" transform="translate(-15.35 -76.07)"/><path d="M40.65,123.88a4.81,4.81,0,0,1,5-4.84,4.84,4.84,0,1,1,0,9.67A4.8,4.8,0,0,1,40.65,123.88Zm8.71,0a3.68,3.68,0,1,0-3.67,3.63A3.56,3.56,0,0,0,49.36,123.88Z" transform="translate(-15.35 -76.07)"/><path d="M60.68,119.14l-4.15,9.47H55.19L51,119.14h1.46l3.41,7.78,3.44-7.78Z" transform="translate(-15.35 -76.07)"/><path d="M67.59,126.24h-5l-1,2.37H60.13l4.28-9.47h1.34l4.3,9.47H68.63Zm-.47-1.08-2-4.64-2,4.64Z" transform="translate(-15.35 -76.07)"/><path d="M72.84,120.32H69.59v-1.18h7.83v1.18H74.18v8.29H72.84Z" transform="translate(-15.35 -76.07)"/><path d="M78.87,119.14h1.35v9.47H78.87Z" transform="translate(-15.35 -76.07)"/><path d="M82.27,123.88a5,5,0,1,1,5,4.83A4.8,4.8,0,0,1,82.27,123.88Zm8.7,0a3.68,3.68,0,1,0-3.66,3.63A3.55,3.55,0,0,0,91,123.88Z" transform="translate(-15.35 -76.07)"/><path d="M102.51,119.14v9.47H101.4l-5.68-7.06v7.06H94.37v-9.47h1.11l5.68,7.06v-7.06Z" transform="translate(-15.35 -76.07)"/><path d="M124.93,128.61v-6.9l-3.42,5.75h-.62l-3.42-5.71v6.86h-1.3v-9.47h1.11l3.94,6.65,3.9-6.65h1.11v9.47Z" transform="translate(-15.35 -76.07)"/><path d="M135.92,127.43v1.18h-6.87v-9.47h6.68v1.18H130.4v2.91h4.74v1.15H130.4v3.05Z" transform="translate(-15.35 -76.07)"/><path d="M138.08,119.14h4c3,0,5.11,1.92,5.11,4.74s-2.07,4.73-5.11,4.73h-4Zm3.91,8.29c2.34,0,3.84-1.43,3.84-3.55s-1.5-3.56-3.84-3.56h-2.56v7.11Z" transform="translate(-15.35 -76.07)"/><path d="M149.23,119.14h1.35v9.47h-1.35Z" transform="translate(-15.35 -76.07)"/><path d="M152.62,123.88a4.79,4.79,0,0,1,5-4.84,4.66,4.66,0,0,1,3.59,1.47l-.88.85a3.5,3.5,0,0,0-2.66-1.12,3.64,3.64,0,1,0,0,7.27,3.51,3.51,0,0,0,2.66-1.13l.88.85a4.69,4.69,0,0,1-3.61,1.48A4.78,4.78,0,0,1,152.62,123.88Z" transform="translate(-15.35 -76.07)"/><path d="M163.14,119.14h1.35v9.47h-1.35Z" transform="translate(-15.35 -76.07)"/><path d="M175.45,119.14v9.47h-1.11l-5.68-7.06v7.06h-1.35v-9.47h1.11l5.67,7.06v-7.06Z" transform="translate(-15.35 -76.07)"/><path d="M185.13,127.43v1.18h-6.87v-9.47h6.68v1.18h-5.32v2.91h4.74v1.15h-4.74v3.05Z" transform="translate(-15.35 -76.07)"/><circle cx="93.93" cy="48.03" r="2.28"/><path d="M138.07,80.59c-.06.15-1.13,0-1.13,0s-1.22-1-1.13-1.13S138.15,80.35,138.07,80.59Z" class="cls-1" transform="translate(-15.35 -76.07)"/><path d="M136.94,79.46c0-.67-1-1.06-1.13-1.13a3.58,3.58,0,0,0-2.26,0c-3.73,1-4.52.07-5.64,1.13a3.61,3.61,0,0,0-1.13,3.39c.83,2.47,5.73,1.68,6.77,4.51a3.53,3.53,0,0,1,0,2.26c-.15.41-.48,1-2.25,2.25-2.27,1.55-3.06,1.42-3.39,2.26-.41,1.06.41,2.31,1.13,3.39a13.43,13.43,0,0,0,3.39,3.38,2.89,2.89,0,0,1,1.12,1.13,2.63,2.63,0,0,1,0,2.26c-.63,1.24-2,.8-3.38,2.25-.41.42-1.32,1.34-1.13,2.26.1.51.82,1.1,2.26,2.26.88.71,1.09.83,1.13,1.13.12,1.07-2.39,2-2.26,2.25s1.84-.15,3.38-1.13c.69-.43,1.11-.71,1.13-1.12,0-.7-1.06-1.44-2.25-2.26-.51-.34-.94-.59-1.13-1.13a1.77,1.77,0,0,1,0-1.13c.42-1.18,2-.86,3.38-2.25a3.32,3.32,0,0,0,1.13-2.26,3.81,3.81,0,0,0-1.13-2.26,25.91,25.91,0,0,0-2.25-2.26,9.72,9.72,0,0,1-1.13-1.12,3.94,3.94,0,0,1-1.13-2.26c0-1.55,2.2-2.87,3.38-3.39s1.84-.44,2.26-1.12a2.76,2.76,0,0,0,0-2.26c-.61-1.76-2.27-2.74-3.38-3.39-1.8-1-3-1.14-3.39-2.25a1.56,1.56,0,0,1,0-1.13c.3-.63,1-.52,2.26-1.13s1.71-1.33,2.25-1.13.44.84,1.13,1.13a1.66,1.66,0,0,0,1.13,0C136.24,80.45,136.94,80,136.94,79.46Z" class="cls-1" transform="translate(-15.35 -76.07)"/><polygon points="113.69 0 114.3 10.63 115.95 39.5 117.08 39.5 117.08 2.26 115.95 2.26 113.69 0"/></svg>