<?xml version="1.0" encoding="utf-8"?>
<!-- Generator: Adobe Illustrator 22.0.1, SVG Export Plug-In . SVG Version: 6.00 Build 0)  -->
<svg version="1.1" id="Layer_1" xmlns="http://www.w3.org/2000/svg" xmlns:xlink="http://www.w3.org/1999/xlink" x="0px" y="0px"
	 viewBox="0 0 35 35" style="enable-background:new 0 0 35 35;" xml:space="preserve">
<style type="text/css">
	.st0{fill:none;stroke:#FFFFFF;stroke-width:0.5616;stroke-linecap:round;}
	.st1{fill:none;stroke:#FFFFFF;stroke-width:2.123;stroke-linecap:round;}
	.st2{fill:none;stroke:#FFFFFF;stroke-width:0.5616;}
	.st3{fill:none;stroke:#FFFFFF;stroke-width:2.123;}
</style>
<title>Artboard</title>
<desc>Created with Sketch.</desc>
<g id="Ressource">
	<g id="Artboard">
		<g id="Logo" transform="translate(1.000000, 1.000000)">
			<g id="Line" transform="translate(0.124369, 0.230286)">
				<g>
					<g transform="translate(0.000000, 0.017615)">
						<g>
							<g>
								<polyline id="path-1" class="st0" points="-38.7,88.6 -59.8,68.2 -59.8,-58 67.8,-58 67.8,68.2 -14.2,68.2 -14.2,-13.4 
									43.1,-13.4 								"/>
							</g>
							<g>
								<polyline id="path-1_1_" class="st1" points="-38.7,88.6 -59.8,68.2 -59.8,-58 67.8,-58 67.8,68.2 -14.2,68.2 -14.2,-13.4 
									43.1,-13.4 								"/>
							</g>
						</g>
						<polyline class="st1" points="70.1,-58 91.2,-37.6 91.2,88.6 -36.3,88.6 -36.3,-36.4 44.4,-36.4 44.4,45.3 -14.2,45.2 						
							"/>
						<g>
							<g>
								<path id="path-2" class="st2" d="M-36.3-36.3l23.4,24.2"/>
							</g>
							<g>
								<path id="path-2_1_" class="st3" d="M-36.3-36.3l23.4,24.2"/>
							</g>
						</g>
						<g>
							<g>
								<path id="path-3" class="st2" d="M67.8,66.9L44.4,45.2"/>
							</g>
							<g>
								<path id="path-3_1_" class="st3" d="M67.8,66.9L44.4,45.2"/>
							</g>
						</g>
					</g>
				</g>
			</g>
		</g>
	</g>
</g>
</svg>
