<?xml version="1.0" encoding="utf-8"?>
<!-- Generator: Adobe Illustrator 22.0.1, SVG Export Plug-In . SVG Version: 6.00 Build 0)  -->
<svg version="1.1" id="Layer_1" xmlns="http://www.w3.org/2000/svg" xmlns:xlink="http://www.w3.org/1999/xlink" x="0px" y="0px"
	 viewBox="0 0 1294 140" style="enable-background:new 0 0 1294 140;" xml:space="preserve">
<style type="text/css">
	.st0{opacity:0.15;fill:#C4C4C4;enable-background:new    ;}
	.st1{fill:url(#Wave_2_);}
</style>
<title>wave_header</title>
<desc>Created with Sketch.</desc>
<g id="Ressource">
	<g id="wave_header">
		<g id="Group-4-Copy" transform="translate(-5.000000, 0.000000)">
			<path id="Wave" class="st0" d="M0,0h1300c-0.2,26.7-0.2,69.7,0,129.1c-309,10.9-265-14.7-598.5-5.2S390.6,144.3,0,121.3
				C1,88.1,1,47.7,0,0z"/>
			
				<radialGradient id="Wave_2_" cx="151.6722" cy="573.2042" r="1.478" gradientTransform="matrix(124.4412 -11.8066 11.8066 124.4412 -25858.2461 -69401.8047)" gradientUnits="userSpaceOnUse">
				<stop  offset="0" style="stop-color:#0069FF"/>
				<stop  offset="2.912505e-02" style="stop-color:#0269FD"/>
				<stop  offset="4.505335e-02" style="stop-color:#0369FC"/>
				<stop  offset="6.005161e-02" style="stop-color:#0468FB"/>
				<stop  offset="0.2548" style="stop-color:#1165EF"/>
				<stop  offset="1" style="stop-color:#4457C0"/>
			</radialGradient>
			<path id="Wave_1_" class="st1" d="M1302,0H377.3H1c0,60.1,0,98.5,0,115.1c80.4-3.2,154.2-7.9,343.7-3.2
				c189.5,4.7,256.5,23.4,532,5.6c183.7-11.8,325.4-10.9,425.3,2.6V0z"/>
		</g>
	</g>
</g>
</svg>
